<svg width="1686" height="702" viewBox="0 0 1686 702" fill="none" xmlns="http://www.w3.org/2000/svg">
<path d="M791.641 199.072C782.661 198.731 775.366 207.251 775.085 217.815C775.085 218.156 775.085 218.837 775.085 219.178V315.958C736.641 278.473 680.239 285.97 649.372 332.657C636.744 352.081 629.729 375.935 629.729 400.812C628.887 460.789 668.172 510.201 717.56 511.223C766.947 512.246 807.636 464.537 808.478 404.56C808.478 403.197 808.478 402.175 808.478 400.812V219.178C808.478 213.725 806.794 208.614 803.707 204.865C800.34 201.117 796.131 199.072 791.641 199.072ZM770.595 427.052C764.983 443.409 754.32 456.358 740.85 463.515C726.82 470.671 711.106 470.671 697.075 463.515C683.606 456.699 673.223 443.409 667.611 427.392C661.718 410.694 661.718 391.611 667.611 374.572C673.223 358.215 683.887 345.265 697.075 338.45C711.106 331.293 726.82 331.293 740.85 338.45C754.32 345.606 764.983 358.556 770.595 374.913C776.488 391.27 776.488 410.354 770.595 427.052Z" fill="#A8A7A7"/>
<path d="M978.246 324.137C943.451 281.881 886.767 281.881 851.972 324.137C835.135 344.584 825.875 372.186 825.875 400.812C825.033 460.788 864.319 510.201 913.706 511.223C963.093 512.246 1003.78 464.537 1004.62 404.56C1004.62 403.197 1004.62 402.175 1004.62 400.812C1004.62 386.499 1002.38 372.527 997.889 359.237C993.399 345.947 986.665 334.019 978.246 324.137ZM966.741 426.711C963.935 434.889 959.726 442.046 954.675 448.18C949.624 454.314 943.451 459.425 936.997 462.833C922.966 469.989 907.252 469.989 893.221 462.833C879.752 456.017 869.089 442.727 863.477 426.711C857.584 410.013 857.584 390.929 863.477 373.89C869.089 357.533 879.752 344.924 893.221 337.768C907.252 330.612 922.966 330.612 936.997 337.768C943.731 341.176 949.624 346.287 954.675 352.421C959.726 358.555 963.935 366.052 966.741 373.89C972.634 391.27 972.634 410.353 966.741 426.711Z" fill="#A8A7A7"/>
<path d="M1347.81 312.211C1347.81 309.485 1347.25 306.758 1346.41 304.373C1345.56 301.987 1344.16 299.943 1342.76 297.898C1341.35 296.194 1339.39 294.49 1337.43 293.468C1335.46 292.446 1333.22 291.764 1330.97 291.764C1327.89 291.764 1324.8 292.787 1321.99 294.831L1226.59 370.143V219.519C1226.59 214.067 1224.9 208.955 1221.81 205.207C1218.73 201.458 1214.52 199.073 1210.03 199.073C1200.77 199.073 1193.47 207.933 1193.19 219.179C1193.19 219.179 1193.19 219.179 1193.19 219.519V488.733C1193.19 494.186 1194.88 499.297 1197.96 503.046C1201.05 507.135 1205.26 509.18 1209.75 509.18C1214.24 509.18 1218.45 507.135 1221.53 503.046C1224.62 499.297 1226.59 494.186 1226.3 488.733V418.874L1245.67 403.539L1319.47 504.068C1322.55 507.476 1326.48 509.521 1330.69 509.18C1332.94 509.18 1335.18 508.839 1337.15 507.476C1339.11 506.454 1340.79 505.09 1342.48 503.046C1343.88 501.001 1345.28 498.956 1346.12 496.571C1346.97 494.185 1347.53 491.459 1347.53 488.733C1347.53 483.621 1345.84 478.51 1343.04 474.761L1274.57 381.048L1341.35 328.227C1345.84 324.819 1348.09 318.686 1347.81 312.211Z" fill="#A8A7A7"/>
<path d="M1070.85 352.421C1075.9 346.287 1082.07 341.175 1088.81 337.768C1095.82 334.36 1103.12 332.315 1110.69 332.315C1117.43 332.315 1123.88 333.678 1130.06 336.404C1136.23 339.471 1142.12 343.561 1147.17 349.013C1150.26 352.08 1154.19 353.443 1158.12 353.443C1162.61 353.784 1167.1 351.739 1170.18 347.65C1173.27 343.902 1174.95 338.449 1174.95 332.997C1174.95 327.203 1172.99 321.41 1169.06 317.662C1153.07 300.282 1132.3 290.74 1110.69 291.422C1061.31 291.422 1021.18 340.153 1021.18 400.13C1021.18 460.106 1061.03 508.497 1110.13 508.837C1131.74 508.837 1152.5 499.637 1168.78 482.598C1172.15 478.849 1174.11 473.397 1174.11 467.603C1174.39 456.699 1167.38 447.838 1158.68 447.498C1158.4 447.498 1157.84 447.498 1157.56 447.498C1153.63 447.498 1149.98 448.861 1146.89 451.587C1141.84 457.039 1136.23 461.129 1130.06 464.196C1123.88 466.922 1117.15 468.285 1110.69 468.285C1103.12 468.285 1095.82 466.581 1088.81 462.833C1082.07 459.425 1076.18 454.313 1070.85 448.179C1048.96 421.599 1048.96 378.661 1070.57 352.08C1070.85 352.762 1070.85 352.762 1070.85 352.421Z" fill="#A8A7A7"/>
<path d="M1679.21 305.735C1675.84 301.986 1672.2 299.26 1667.99 297.556C1663.22 295.512 1658.17 294.149 1653.12 293.467C1648.06 292.786 1643.01 292.445 1637.96 292.445C1627.86 292.445 1617.48 294.489 1607.94 298.919C1598.4 303.009 1589.7 309.143 1581.84 316.64V312.551C1581.56 301.305 1573.7 292.786 1564.44 293.126C1555.74 293.467 1548.73 301.986 1548.45 312.551V489.414C1548.73 500.659 1556.59 509.179 1565.85 508.838C1574.54 508.497 1581.56 499.978 1581.84 489.414V401.152C1581.84 391.951 1583.24 383.091 1586.33 374.572C1589.14 366.393 1593.06 359.237 1598.4 353.103C1603.45 346.969 1609.62 341.857 1616.07 338.45C1623.09 335.042 1630.39 332.997 1637.96 332.997C1645.54 332.997 1652.83 334.701 1659.85 337.768C1662.1 339.131 1664.34 339.813 1666.87 339.813C1669.11 339.813 1671.36 339.472 1673.32 338.109C1675.28 337.086 1676.97 335.723 1678.65 333.679C1680.05 331.975 1681.46 329.589 1682.3 327.204C1683.14 324.819 1683.7 322.092 1683.7 319.366C1683.98 314.254 1682.3 309.484 1679.21 305.735Z" fill="#A8A7A7"/>
<path d="M1524.31 359.237C1510 319.025 1477.45 292.785 1441.53 292.445C1392.15 292.445 1352.3 340.835 1352.02 400.812C1352.02 460.788 1392.15 509.519 1441.53 509.519C1462.86 509.519 1483.63 500.318 1499.9 483.28C1500.18 482.939 1500.46 482.598 1500.46 482.598C1501.87 481.235 1503.27 479.531 1504.11 477.486C1509.44 467.945 1507.48 455.336 1499.9 448.861C1493.45 443.75 1485.03 444.772 1479.42 451.247C1478.86 451.928 1477.17 453.632 1477.17 453.973L1476.89 454.314C1472.12 459.084 1466.79 463.174 1460.9 465.559C1454.72 468.286 1448.27 469.649 1441.53 469.308C1435.36 469.308 1429.47 468.285 1423.57 465.9C1417.96 463.515 1412.63 460.448 1407.86 456.017C1403.09 451.928 1398.88 446.817 1395.51 441.023C1391.87 435.23 1389.34 428.415 1387.66 421.599H1513.93C1518.42 421.599 1522.63 419.554 1525.72 415.806C1529.08 412.057 1530.77 406.946 1530.49 401.493C1530.77 386.84 1528.52 372.527 1524.31 359.237ZM1387.66 381.047C1389.34 373.89 1391.87 367.416 1395.51 361.622C1398.88 355.829 1403.09 350.717 1407.86 346.628C1412.63 342.539 1417.96 339.131 1423.57 336.746C1429.19 334.36 1435.36 333.338 1441.25 333.338C1447.15 333.338 1453.32 334.36 1458.93 336.746C1470.16 341.176 1479.98 350.036 1486.99 361.622C1490.64 367.416 1493.17 374.231 1495.13 381.047H1387.66Z" fill="#A8A7A7"/>
<path d="M1622.25 479.872C1615.79 479.872 1610.74 486.347 1610.74 494.185C1610.74 502.023 1616.07 508.157 1622.53 508.157C1628.98 508.157 1634.03 501.682 1634.03 494.185C1634.03 486.006 1628.7 479.872 1622.25 479.872ZM1622.25 505.09C1617.19 505.43 1612.99 500.66 1612.71 494.526C1612.42 488.392 1616.35 483.28 1621.4 482.939C1626.46 482.598 1630.66 487.369 1630.94 493.503C1630.94 493.844 1630.94 493.844 1630.94 494.185C1631.23 499.978 1627.3 505.09 1622.53 505.09C1622.53 505.09 1622.53 505.09 1622.25 505.09Z" fill="#A8A7A7"/>
<path d="M1625.05 494.184C1626.45 493.843 1627.3 492.48 1627.3 490.776C1627.3 489.413 1627.02 488.391 1626.17 487.709C1625.05 487.027 1623.65 486.687 1622.25 486.687C1620.84 486.687 1619.16 486.687 1617.76 487.027V500.999H1620.28V495.547H1621.4C1622.81 495.547 1623.65 496.228 1623.93 497.591C1624.21 498.614 1624.49 499.977 1624.77 500.999H1627.58C1627.02 499.977 1626.74 498.614 1626.74 497.591C1627.02 496.228 1626.17 494.865 1625.05 494.184ZM1621.68 493.161H1620.28V489.072C1620.84 489.072 1621.4 489.072 1621.68 489.072C1623.37 489.072 1624.21 490.094 1624.21 491.117C1624.49 492.48 1623.09 493.502 1621.68 493.161Z" fill="#A8A7A7"/>
<path d="M599.14 244.737C597.456 243.033 582.303 229.061 549.752 229.061C541.334 229.061 532.635 230.083 524.217 231.787C518.043 179.648 482.406 154.431 481.003 153.068L472.304 146.934L466.692 156.816C459.676 170.107 454.345 185.101 451.258 200.436C445.365 230.083 449.013 258.027 461.36 281.881C446.488 292.105 422.355 294.49 417.304 294.831H18.8375C8.45493 294.831 0.0366244 305.054 0.0366244 317.663C-0.524596 359.919 5.36822 402.175 17.4345 442.046C31.1844 485.666 51.6689 518.04 78.0463 537.805C107.791 559.955 156.337 572.564 211.056 572.564C235.749 572.564 260.443 569.838 284.856 564.385C318.81 556.888 351.361 542.576 381.386 521.788C406.08 504.409 428.248 482.258 447.049 456.359C478.758 413.08 497.559 364.69 511.309 321.752C513.273 321.752 514.957 321.752 516.921 321.752C551.436 321.752 572.762 305.054 584.548 290.742C592.405 281.881 598.298 270.976 602.507 258.709L605.032 249.848L599.14 244.737Z" fill="#A8A7A7"/>
<path d="M55.879 280.86H109.195C111.72 280.86 113.965 278.474 113.965 275.066V217.134C113.965 214.067 112.001 211.341 109.195 211.341H55.879C53.3535 211.341 51.1086 213.727 51.1086 217.134V275.066C51.3892 278.474 53.3535 280.86 55.879 280.86Z" fill="#A8A7A7"/>
<path d="M129.4 280.86H182.716C185.242 280.86 187.487 278.474 187.487 275.066V217.134C187.487 214.067 185.522 211.341 182.716 211.341H129.4C126.875 211.341 124.63 213.727 124.63 217.134V275.066C124.911 278.474 126.875 280.86 129.4 280.86Z" fill="#A8A7A7"/>
<path d="M204.324 280.86H257.64C260.166 280.86 262.411 278.474 262.411 275.066V217.134C262.411 214.067 260.446 211.341 257.64 211.341H204.324C201.799 211.341 199.554 213.727 199.554 217.134V275.066C199.554 278.474 201.518 280.86 204.324 280.86Z" fill="#A8A7A7"/>
<path d="M278.122 280.86H331.438C333.963 280.86 336.208 278.474 336.208 275.066V217.134C336.208 214.067 334.244 211.341 331.438 211.341H278.122C275.597 211.341 273.352 213.727 273.352 217.134V275.066C273.352 278.474 275.597 280.86 278.122 280.86Z" fill="#A8A7A7"/>
<path d="M129.4 198.05H182.716C185.242 198.05 187.487 195.323 187.487 192.256V134.324C187.487 131.257 185.522 128.531 182.716 128.531H129.4C126.875 128.531 124.63 130.917 124.63 134.324V192.256C124.911 195.323 126.875 198.05 129.4 198.05Z" fill="#A8A7A7"/>
<path d="M204.324 198.05H257.64C260.166 198.05 262.411 195.323 262.411 192.256V134.324C262.411 131.257 260.446 128.531 257.64 128.531H204.324C201.799 128.531 199.554 130.917 199.554 134.324V192.256C199.554 195.323 201.518 198.05 204.324 198.05Z" fill="#A8A7A7"/>
<path d="M278.122 198.05H331.438C333.963 198.05 336.208 195.323 336.208 192.256V134.324C336.208 131.257 333.963 128.531 331.438 128.531H278.122C275.597 128.531 273.352 130.917 273.352 134.324V192.256C273.352 195.323 275.597 198.05 278.122 198.05Z" fill="#A8A7A7"/>
<path d="M278.122 114.9H331.438C333.963 114.9 336.208 112.515 336.208 109.107V51.1751C336.208 48.1081 333.963 45.3818 331.438 45.3818H278.122C275.597 45.3818 273.352 47.7673 273.352 51.1751V109.107C273.352 112.174 275.597 114.9 278.122 114.9Z" fill="#A8A7A7"/>
<path d="M352.484 280.86H405.8C408.326 280.86 410.571 278.474 410.571 275.066V217.134C410.571 214.067 408.606 211.341 405.8 211.341H352.484C349.959 211.341 347.714 213.727 347.714 217.134V275.066C347.995 278.474 349.959 280.86 352.484 280.86Z" fill="#A8A7A7"/>
</svg>
